HIERARCHY
ROOT root
{
	OFFSET 0.000000 0.000000 0.000000
	CHANNELS 6 Xposition Yposition Zposition Zrotation Yrotation Xrotation
	JOINT lhip
	{
		OFFSET 0.058581 -0.082280 -0.017664
		CHANNELS 3 Zrotation Yrotation Xrotation
		JOINT lknee
		{
			OFFSET 0.043451 -0.386469 0.008037
			CHANNELS 3 Zrotation Yrotation Xrotation
			JOINT lankle
			{
				OFFSET -0.014790 -0.426874 -0.037428
				CHANNELS 3 Zrotation Yrotation Xrotation
				JOINT ltoe
				{
					OFFSET 0.041054 -0.060286 0.122042
					CHANNELS 3 Zrotation Yrotation Xrotation
					End Site
					{
						OFFSET 0.000000 0.000000 0.000000
					}
				}
			}
		}
	}
	JOINT rhip
	{
		OFFSET -0.060310 -0.090513 -0.013543
		CHANNELS 3 Zrotation Yrotation Xrotation
		JOINT rknee
		{
			OFFSET -0.043257 -0.383688 -0.004843
			CHANNELS 3 Zrotation Yrotation Xrotation
			JOINT rankle
			{
				OFFSET 0.019056 -0.420046 -0.034562
				CHANNELS 3 Zrotation Yrotation Xrotation
				JOINT rtoe
				{
					OFFSET -0.034840 -0.062106 0.130323
					CHANNELS 3 Zrotation Yrotation Xrotation
					End Site
					{
						OFFSET 0.000000 0.000000 0.000000
					}
				}
			}
		}
	}
	JOINT lowerback
	{
		OFFSET 0.004439 0.124404 -0.038385
		CHANNELS 3 Zrotation Yrotation Xrotation
		JOINT upperback
		{
			OFFSET 0.004488 0.137956 0.026820
			CHANNELS 3 Zrotation Yrotation Xrotation
			JOINT chest
			{
				OFFSET -0.002265 0.056032 0.002855
				CHANNELS 3 Zrotation Yrotation Xrotation
				JOINT lowerneck
				{
					OFFSET -0.013390 0.211636 -0.033468
					CHANNELS 3 Zrotation Yrotation Xrotation
					JOINT upperneck
					{
						OFFSET 0.010113 0.088937 0.050410
						CHANNELS 3 Zrotation Yrotation Xrotation
						End Site
						{
							OFFSET 0.000000 0.000000 0.000000
						}
					}
				}
				JOINT lclavicle
				{
					OFFSET 0.071702 0.114000 -0.018898
					CHANNELS 3 Zrotation Yrotation Xrotation
					JOINT lshoulder
					{
						OFFSET 0.122921 0.045205 -0.019046
						CHANNELS 3 Zrotation Yrotation Xrotation
						JOINT lelbow
						{
							OFFSET 0.255332 -0.015649 -0.022946
							CHANNELS 3 Zrotation Yrotation Xrotation
							JOINT lwrist
							{
								OFFSET 0.265709 0.012698 -0.007375
								CHANNELS 3 Zrotation Yrotation Xrotation
								End Site
								{
									OFFSET 0.000000 0.000000 0.000000
								}
							}
						}
					}
				}
				JOINT rclavicle
				{
					OFFSET -0.082954 0.112472 -0.023707
					CHANNELS 3 Zrotation Yrotation Xrotation
					JOINT rshoulder
					{
						OFFSET -0.113228 0.046853 -0.008472
						CHANNELS 3 Zrotation Yrotation Xrotation
						JOINT relbow
						{
							OFFSET -0.260127 -0.014369 -0.031269
							CHANNELS 3 Zrotation Yrotation Xrotation
							JOINT rwrist
							{
								OFFSET -0.269108 0.006794 -0.006027
								CHANNELS 3 Zrotation Yrotation Xrotation
								End Site
								{
									OFFSET 0.000000 0.000000 0.000000
								}
							}
						}
					}
				}
			}
		}
	}
}
MOTION
Frames: 13
Frame Time: 0.033333
0.361319 1.652797 0.990296 -128.563555 4.584093 82.809407 -3.111981 2.316549 13.055849 -1.996011 -15.812400 9.374337 6.280522 10.426222 -21.010433 0.000000 -0.000000 0.000000 -1.151275 3.167163 -14.023312 0.138327 9.139546 13.761292 9.785805 1.282752 -2.474515 0.000000 -0.000000 0.000000 1.197807 -0.438020 11.291488 4.925624 0.798409 7.539599 1.670094 1.321918 3.599709 1.126353 8.272960 4.994485 -5.642761 5.072192 7.833872 -24.248585 1.725231 1.994387 -57.832966 -5.058027 8.520022 15.133249 -31.542361 -5.395159 11.154753 -3.096698 -11.067533 28.379913 3.977832 6.058018 48.693015 11.648569 9.124120 -32.321781 33.242662 -29.357545 -4.370267 2.623897 -10.450932 
0.346504 1.669157 0.987456 -125.394244 4.449279 82.707612 -2.291502 2.704426 14.456381 -2.275413 -18.013180 10.060866 6.031643 9.513355 -21.770188 0.000000 -0.000000 0.000000 -1.007587 3.929637 -14.844179 -0.362289 11.007081 12.108969 9.679652 1.998876 -2.150904 0.000000 -0.000000 0.000000 1.007625 -0.658014 10.799317 5.289432 0.075198 7.811480 1.510394 0.689094 3.634544 1.367317 9.184527 5.034917 -5.951020 4.971305 7.542058 -24.082298 2.015558 2.253776 -57.830581 -4.561698 7.440339 15.259402 -27.901954 -6.070635 12.409777 -2.022783 -10.653376 28.495849 2.302839 5.454759 50.642389 11.244588 9.172418 -39.022451 36.885659 -36.993441 -8.015108 2.067453 -15.668735 
0.330328 1.685572 0.984231 -122.362118 4.163375 82.489053 -1.549781 3.081374 16.160883 -2.601272 -19.706205 10.428312 5.565791 8.885654 -22.410120 0.000000 -0.000000 0.000000 -1.401945 4.818220 -15.395284 -0.186738 12.874725 10.855221 9.988772 3.155460 -2.575242 0.000000 -0.000000 0.000000 0.778576 -0.937024 10.276576 5.539875 -0.586621 8.231623 1.327643 0.068966 3.658145 1.657913 10.369722 5.100498 -6.475171 4.985478 7.363568 -23.957288 2.373485 2.395471 -57.672671 -3.817256 6.649638 15.101189 -25.390837 -6.384021 11.836015 -1.089718 -10.270160 28.789981 0.747790 4.613876 52.218907 10.874848 9.552200 -47.016531 40.336443 -45.277139 -8.805399 1.375689 -21.348425 
0.313328 1.702658 0.981245 -119.303742 4.046792 82.355156 -0.478399 3.431089 17.763503 -2.708768 -21.222823 10.714663 4.884529 7.971340 -22.861216 0.000000 -0.000000 0.000000 -1.642560 5.673482 -15.402239 -0.055916 14.702027 9.408725 10.669725 4.635178 -2.638917 0.000000 -0.000000 0.000000 0.572191 -1.293183 9.768286 5.915409 -1.242562 8.405871 1.227777 -0.552250 3.685829 1.938242 11.552830 5.409139 -7.114123 5.197445 7.311766 -23.991897 3.054427 2.614629 -57.687263 -3.035357 6.086761 14.969557 -24.096120 -6.360500 11.583011 -0.674161 -9.915072 29.166771 -0.848023 3.551689 53.138297 10.774889 10.044513 -55.508491 43.399925 -53.951902 -10.246259 1.133234 -26.145036 
0.295274 1.720522 0.979195 -116.376897 3.855474 82.290658 0.731913 3.454697 19.290033 -2.975940 -22.868022 11.062988 4.031013 6.933104 -23.081564 0.000000 -0.000000 0.000000 -1.828162 6.619771 -14.911031 0.037622 16.067974 8.435184 10.892166 5.606015 -2.976282 0.000000 -0.000000 0.000000 0.290404 -1.721731 8.955894 6.216517 -1.737313 8.758792 1.089701 -1.133572 3.682670 2.459507 12.622518 5.879802 -7.924375 5.665362 7.538215 -24.249663 4.122160 2.605994 -57.449373 -2.114648 5.804003 14.693982 -24.257271 -5.880957 10.456322 -0.366337 -9.686097 29.491633 -2.318250 2.406001 53.565208 10.876992 10.809696 -63.634254 46.147452 -61.992840 -10.235869 1.155288 -31.073753 
0.276232 1.738826 0.977754 -113.737884 3.652549 82.150603 1.933838 3.219939 20.814042 -3.324412 -24.283341 11.613544 3.279140 6.090398 -23.048858 0.000000 -0.000000 0.000000 -1.674843 7.306997 -13.981580 0.271530 16.385659 8.475762 10.638067 5.769434 -2.990994 0.000000 -0.000000 0.000000 0.084452 -2.117580 8.048329 6.383043 -2.040394 9.222508 0.945955 -1.545195 3.573553 2.814766 13.567288 6.398364 -8.522638 6.629657 7.716038 -24.443241 4.906646 2.922824 -57.305315 -1.050478 5.429688 14.522344 -25.656839 -5.241450 8.582164 0.021861 -10.204300 29.030370 -3.327292 1.835161 54.473742 11.010205 11.407476 -71.856854 48.160077 -69.902333 -9.364695 1.192516 -36.309545 
0.257229 1.757542 0.976511 -111.771146 3.219931 82.402902 2.484673 2.890671 21.615588 -3.423724 -24.576117 12.552344 2.820596 5.516846 -22.345027 0.000000 -0.000000 0.000000 -1.535377 7.927776 -13.757309 0.644957 16.781526 10.744606 11.499071 6.261423 -0.753749 0.000000 -0.000000 0.000000 -0.301084 -2.219679 6.786453 6.473000 -2.002927 9.668157 0.751365 -1.684087 3.379329 3.046834 14.272698 6.822397 -8.959853 7.935211 7.621186 -24.546023 5.764009 3.079307 -57.342229 -0.302789 5.025999 14.419412 -27.191631 -4.761023 5.666798 -0.297426 -10.885247 28.518184 -4.227189 1.416386 55.379199 11.164000 12.218343 -79.826280 49.464095 -77.117109 -6.627984 2.120381 -41.179756 
0.238458 1.776266 0.976602 -110.571648 3.105967 82.810566 3.033095 3.367965 21.424040 -2.953328 -23.718041 14.937121 0.763408 3.913807 -21.647550 0.000000 -0.000000 0.000000 -1.086572 7.809195 -14.479727 1.499207 16.207581 14.630182 11.277374 6.449021 0.268558 0.000000 -0.000000 0.000000 -0.183178 -2.434372 5.467557 6.371198 -1.809006 10.677765 0.692109 -1.389690 2.304473 2.517716 14.705611 7.442909 -8.430325 10.653509 8.003318 -24.810861 6.466202 2.809721 -57.957674 0.561390 1.647639 13.796568 -28.659146 -3.325831 0.393006 -1.352065 -8.405999 27.805299 -4.009712 3.045963 55.335637 11.644817 9.428636 -87.626501 52.325073 -86.211294 -4.660816 3.565937 -45.525027 
0.219437 1.794405 0.979484 -109.643353 3.326331 82.751267 3.752820 3.127528 21.192798 -3.434380 -22.256565 18.356528 -0.591081 3.882334 -19.748022 0.000000 -0.000000 0.000000 -0.710049 8.276230 -13.742560 2.540876 14.273264 16.644617 9.874307 5.850510 -1.031759 0.000000 -0.000000 0.000000 0.327554 -2.731208 4.875012 6.337274 -1.388159 11.277239 0.497094 -1.062355 1.710092 2.578573 15.962518 8.046870 -9.082272 12.923845 7.945197 -25.136875 7.237388 2.169028 -58.620421 1.648976 1.358946 13.809476 -30.775517 -2.873759 -0.323770 -1.289921 -8.735059 27.307964 -4.107216 3.230878 55.523675 12.410389 9.412126 -94.553073 52.860783 -94.957820 -5.237694 3.605030 -53.364693 
0.201099 1.812118 0.984323 -108.314378 3.570237 82.773384 4.864104 3.457234 19.181887 -4.307624 -19.725244 24.331473 -2.268394 2.888315 -16.348458 0.000000 -0.000000 0.000000 -0.061024 7.355119 -11.988225 3.054593 13.449719 16.845389 8.347471 6.726035 -2.697745 0.000000 -0.000000 0.000000 0.771120 -2.202834 4.095999 6.456236 -1.714619 11.927019 0.427869 -1.011098 1.190704 2.675340 17.522554 9.039240 -9.610340 14.673091 7.932042 -25.534847 7.289311 1.843554 -59.354937 2.230152 1.153999 13.946341 -32.318941 -2.436689 -0.562710 -1.142757 -9.286233 27.375289 -3.785990 3.703668 55.241885 13.238783 8.997893 -100.207579 51.734069 -100.799847 -6.127762 2.669590 -56.751513 
0.184658 1.827899 0.989777 -106.080613 3.712675 83.060868 5.693347 3.523450 15.141620 -4.709556 -15.772532 32.280343 -3.587988 1.944936 -11.380230 0.000000 -0.000000 0.000000 0.338371 5.754547 -9.837912 3.137373 12.505588 15.652576 6.888325 7.236370 -3.694965 0.000000 -0.000000 0.000000 1.155944 -1.350979 3.641874 6.592485 -2.411100 11.891864 0.391054 -1.262870 0.960141 2.211526 18.640447 9.473476 -9.625266 16.333723 7.938543 -25.605159 7.092674 1.592527 -60.169316 2.005999 1.173076 13.578838 -33.594740 -1.366551 -1.167869 -1.125332 -9.895859 27.486881 -4.299832 3.603011 54.672249 14.291540 8.388666 -104.758602 51.563541 -104.457561 -5.863955 2.346724 -57.383025 
0.169909 1.841403 0.994561 -103.256670 3.857354 83.416588 6.166515 3.278535 10.254313 -4.145531 -11.057052 40.375544 -2.647065 3.564148 -8.591193 0.000000 -0.000000 0.000000 0.523137 4.598802 -7.528265 3.213341 11.300086 13.842756 5.673414 6.798064 -4.283595 0.000000 -0.000000 0.000000 1.474664 -0.698412 3.628749 6.655155 -2.882988 11.302925 0.457333 -1.476728 0.922343 1.743243 18.551518 9.604949 -9.582028 18.088429 8.089632 -25.766659 6.723286 1.510777 -60.624135 1.437830 1.421054 13.273554 -35.615650 0.647988 -2.871981 -1.198815 -10.749952 27.104391 -4.495834 3.491014 53.484453 15.239957 7.761305 -108.252497 51.050467 -106.859288 -5.540314 2.516970 -57.186459 
0.156148 1.853279 0.997924 -100.704618 3.944460 83.853397 6.508969 3.353981 5.347960 -0.278480 -4.126299 46.514855 -1.084068 8.082599 -8.481501 0.000000 -0.000000 0.000000 0.690333 3.712244 -5.495556 3.251651 10.261658 12.059827 4.961381 6.145812 -5.082505 0.000000 -0.000000 0.000000 1.820584 -0.004115 3.270592 6.513387 -3.196080 11.294030 0.404572 -1.415897 0.896454 1.470368 17.937761 9.459913 -9.512799 19.364058 7.945491 -25.730800 6.065977 1.563734 -60.715084 0.652690 1.355564 12.463270 -37.967793 2.660489 -5.206168 -1.830060 -11.414283 26.447261 -4.022473 3.736797 51.233522 17.152401 6.234466 -109.512347 50.304402 -106.455633 -5.218076 3.507144 -54.388357 
